<svg version="1.1" viewBox="0.0 0.0 960.0 540.0" fill="none" stroke="none" stroke-linecap="square" stroke-miterlimit="10" xmlns:xlink="http://www.w3.org/1999/xlink" xmlns="http://www.w3.org/2000/svg"><clipPath id="g38d2afe1410_0_17.0"><path d="m0 0l960.0 0l0 540.0l-960.0 0l0 -540.0z" clip-rule="nonzero"/></clipPath><g clip-path="url(#g38d2afe1410_0_17.0)"><path fill="#ffffff" d="m0 0l960.0 0l0 540.0l-960.0 0z" fill-rule="evenodd"/><path fill="#000000" fill-opacity="0.0" d="m891.36005 0l0 539.99994" fill-rule="evenodd"/><path fill="#000000" fill-opacity="0.0" d="m64.68 0l0 539.99994" fill-rule="evenodd"/><path stroke="#92ccdc" stroke-width="1.0" stroke-linejoin="round" stroke-linecap="butt" stroke-dasharray="4.0,3.0" d="m891.36005 0l0 539.99994" fill-rule="evenodd"/><path stroke="#92ccdc" stroke-width="1.0" stroke-linejoin="round" stroke-linecap="butt" stroke-dasharray="4.0,3.0" d="m64.68 0l0 539.99994" fill-rule="evenodd"/><path fill="#000000" fill-opacity="0.0" d="m0 114.00002l960.0 0" fill-rule="evenodd"/><path fill="#000000" fill-opacity="0.0" d="m0 44.88l960.0 0" fill-rule="evenodd"/><path stroke="#92ccdc" stroke-width="1.0" stroke-linejoin="round" stroke-linecap="butt" stroke-dasharray="4.0,3.0" d="m0 114.00002l960.0 0" fill-rule="evenodd"/><path stroke="#92ccdc" stroke-width="1.0" stroke-linejoin="round" stroke-linecap="butt" stroke-dasharray="4.0,3.0" d="m0 44.88l960.0 0" fill-rule="evenodd"/><path fill="#000000" fill-opacity="0.0" d="m5.7000523 532.9801l946.8 0l0 -527.28l-946.8 0l0 527.28z" fill-rule="evenodd"/><path stroke="#92d2ef" stroke-width="20.0" stroke-linejoin="round" stroke-linecap="butt" d="m5.7000523 532.9801l946.8 0l0 -527.28l-946.8 0l0 527.28z" fill-rule="evenodd"/><path fill="#000000" fill-opacity="0.0" d="m32.314644 466.77167l895.3707 0" fill-rule="evenodd"/><path stroke="#92ccdc" stroke-width="1.0" stroke-linejoin="round" stroke-linecap="butt" stroke-dasharray="8.0,3.0" d="m32.314644 466.77167l895.3707 0" fill-rule="evenodd"/></g></svg>